<svg width="38" height="30" viewBox="0 0 38 30" fill="none" xmlns="http://www.w3.org/2000/svg">
<path d="M5.5 5C5.5 2.23858 7.73858 0 10.5 0H26.5C29.2614 0 31.5 2.23858 31.5 5V18C31.5 20.7614 29.2614 23 26.5 23H10.5C7.73858 23 5.5 20.7614 5.5 18V5Z" fill="#0D8D1A" fill-opacity="0.57"/>
<path fill-rule="evenodd" clip-rule="evenodd" d="M0 22.5V12H2V22.46C2.07957 23.4126 2.44021 24.8354 3.23706 25.9967C4.01754 27.1342 5.19125 28 7 28H29.4627C30.4694 27.9212 31.9964 27.499 33.2544 26.5034C34.486 25.5286 35.5 23.9782 35.5 21.5V12H37.5V21.5C37.5 24.6218 36.1806 26.7381 34.4956 28.0716C32.8511 29.3731 30.8985 29.9027 29.5712 29.9975C29.5475 29.9992 29.5238 30 29.5 30H7C4.40875 30 2.66579 28.6991 1.58794 27.1283C0.536755 25.5963 0.0963478 23.7909 0.00294554 22.5767C0.000982583 22.5512 0 22.5256 0 22.5Z" fill="#0D8D1A" fill-opacity="0.57"/>
</svg>
